<svg version="1.1" xmlns="http://www.w3.org/2000/svg" xmlns:xlink="http://www.w3.org/1999/xlink" width="107.37771" height="116.97321" viewBox="0,0,107.37771,116.97321"><g transform="translate(-364.13399,-93.9751)"><g fill="#9966ff" stroke="#000000" stroke-width="2" stroke-miterlimit="10"><path d="M367.5,198l1,-86c0,0 0.90534,-5.74896 3.42478,-8.62832c2.04954,-2.34233 8.57522,-5.37168 8.57522,-5.37168c0,0 4.52305,-3.47811 8.88175,-2.97518c12.15918,1.40298 69.11825,11.97518 69.11825,11.97518v91z"/><path d="M379.5,197v-91c0,0 56.95907,-10.5722 69.11825,-11.97518c4.3587,-0.50293 8.88175,2.97518 8.88175,2.97518c0,0 6.52568,3.02935 8.57522,5.37168c2.51944,2.87936 3.42478,8.62832 3.42478,8.62832l1,86z"/><path d="M458.55513,109.86607l-3.69688,90.92488c0,0 -57.34154,8.24951 -69.54768,9.15736c-4.37554,0.32544 -8.75355,-3.33355 -8.75355,-3.33355c0,0 -6.39723,-3.29196 -8.34992,-5.71561c-2.40039,-2.97934 -3.07143,-8.76033 -3.07143,-8.76033l2.49458,-85.96963z"/><path d="M460.54396,102.63515l2.49459,85.96963c0,0 -0.67105,5.78099 -3.07143,8.76032c-1.95269,2.42366 -8.34992,5.71562 -8.34992,5.71562c0,0 -4.37801,3.65898 -8.75355,3.33354c-12.20614,-0.90786 -69.54768,-9.15736 -69.54768,-9.15736l-3.69688,-90.92487z"/></g></g></svg>