<svg version="1.1" xmlns="http://www.w3.org/2000/svg" xmlns:xlink="http://www.w3.org/1999/xlink" width="343.37015" height="235.22304" viewBox="0,0,343.37015,235.22304"><g transform="translate(3.994,-84.85961)"><g stroke-miterlimit="10"><path d="M276.21043,260.80853c0,0 -9.33078,5.19828 -20.88657,5.28781c-11.00755,0.08526 -20.62275,-2.37016 -22.40157,-2.63274c-1.5656,-0.23111 -11.77952,-0.31673 -20.75648,-2.052c-14.35654,-2.77511 -21.98623,-10.70816 -21.98623,-10.70816c0,0 0.38845,3.97247 1.12785,5.94193c0.73112,1.94737 3.28401,5.80934 3.28401,5.80934c0,0 -22.46895,-2.43251 -29.91487,-24.07222c-2.60836,-7.58057 -3.16217,-14.35707 -2.34666,-20.05418c1.70015,-11.87717 8.42894,-19.06302 8.42894,-19.06302c0,0 -5.07568,2.60469 -12.05593,1.58047c-7.07197,-1.03769 -13.58336,-5.11647 -13.58336,-5.11647c0,0 8.27561,-3.20721 12.20329,-5.55593c3.93215,-2.3514 6.38306,-6.08066 6.38306,-6.08066c0,0 -2.85479,1.48863 -8.67439,2.0137c-5.81961,0.52506 -14.40768,-0.21718 -14.40768,-0.21718c0,0 10.81335,-9.75617 15.58859,-14.34638c4.40675,-4.23598 12.04632,-12.21761 12.04632,-12.21761c0,0 -9.67434,-5.40335 -15.41356,-12.20843c-5.70496,-6.76447 -9.12717,-16.2558 -9.12717,-16.2558c0,0 11.97274,0.21105 17.67876,-0.35669c5.2499,-0.52232 12.47782,-1.83701 13.86099,-3.00873c0.81144,-0.68741 7.90826,-20.02174 21.02126,-28.86842c14.76858,-9.9636 31.49652,-14.20562 46.95664,-13.73199c19.03463,0.58312 35.87578,6.40127 49.34543,20.14608c13.67828,13.95769 15.70797,37.39131 16.19932,47.80597c0.15746,3.33776 -0.37133,6.96123 0.93233,10.40047c0.88292,2.32924 4.3584,7.75708 11.54631,15.58751c7.18794,7.83042 16.00466,14.98623 16.00466,14.98623c0,0 -4.31073,1.99662 -8.83822,1.82154c-4.52751,-0.17511 -9.6575,-2.84342 -9.6575,-2.84342c0,0 3.33183,5.7575 7.2266,9.61744c3.79673,3.76279 13.38155,10.88502 13.38155,10.88502c0,0 -5.51718,3.85785 -12.55195,3.44859c-7.03482,-0.40929 -13.37626,-3.31515 -13.37626,-3.31515c0,0 8.71668,12.92311 4.887,28.32275c-3.96728,15.95302 -20.56003,22.35501 -20.56003,22.35501c0,0 0.59894,-2.49646 0.74605,-3.63264c0.12999,-1.00412 0.09164,-2.83732 0.09164,-2.83732c0,0 -4.78917,5.59944 -11.30179,8.47396c-7.47657,3.29997 -15.13787,2.6609 -15.13787,2.6609c0,0 1.75018,-2.91031 2.44649,-4.28473c0.6457,-1.27455 1.59104,-3.68475 1.59104,-3.68475z" fill="#000000" stroke="#ff0000" stroke-width="0" stroke-linecap="round"/><path d="M292.30504,194.89693c-2.60574,19.57471 -1.84262,18.79529 -3.65092,31.26585c-2.35468,12.99439 -7.75793,20.73197 -20.05961,32.79268c-12.30165,12.06074 -19.27656,16.03797 -27.59265,16.183c-8.00309,0.1396 -18.50346,-7.30687 -29.00358,-18.41323c-11.18091,-11.82648 -16.80075,-18.08668 -18.56616,-32.09536c-1.58994,-12.61632 -4.25597,-16.62832 -4.98288,-27.85572c-0.53129,-8.2058 -11.90715,-82.97721 55.16783,-79.86671c63.06678,2.92464 49.13158,75.81515 48.68796,77.98949z" fill="#ffffff" stroke="#000000" stroke-width="1.5" stroke-linecap="butt"/><path d="M221.08846,245.57991c0,0 2.12796,3.70141 9.43205,4.35825c2.21576,0.19926 6.2871,-0.13993 10.75973,-0.14471c5.1213,-0.00547 10.60325,0.43918 14.59371,-0.34669c4.39626,-0.8658 5.43122,-4.04273 5.43122,-4.04273c0,0 0.54009,5.31261 -4.27281,6.35133c-5.61212,1.21119 -12.17001,-0.24428 -15.58731,-0.37194c-4.07695,-0.1523 -11.33519,1.71102 -16.43105,0.18407c-3.7591,-1.1264 -3.92554,-5.98755 -3.92554,-5.98755z" fill="#000000" stroke="none" stroke-width="0.5" stroke-linecap="round"/><path d="M231.7972,171.19012c0,0 -5.51616,-7.84799 -18.55521,-4.73394c-11.90252,2.84262 -21.31728,15.54693 -21.31728,15.54693c0,0 5.95626,-14.36205 19.52091,-19.41918c9.84722,-3.67122 20.55925,4.19278 20.55925,4.19278z" fill="#000000" stroke="none" stroke-width="0.5" stroke-linecap="round"/><path d="M293.65039,164.73436c0,0 -8.34695,3.08365 -13.62562,3.97256c-7.98405,1.34446 -29.61737,3.30924 -29.61737,3.30924v-3.76644c0,0 13.2178,-1.3256 20.1664,-1.89048c7.43309,-0.60427 23.07663,-1.62488 23.07663,-1.62488z" fill="#000000" stroke="none" stroke-width="0.5" stroke-linecap="round"/><g><g stroke-linecap="butt"><path d="M237.6432,205.53334c0,16.42911 -11.38671,23.25718 -24.17719,23.25718c-12.79049,0 -22.14121,-6.82807 -22.14121,-23.25718c0,-16.42911 9.35075,-29.74755 22.14121,-29.74755c12.79049,0 24.17719,13.31844 24.17719,29.74755z" fill="#ffffff" stroke="#000000" stroke-width="1.5"/><path d="M192.47137,194.75175c0,0 0.65535,-2.40384 1.06357,-3.54605c3.49574,-9.78156 10.84561,-16.5016 19.93107,-16.5016c8.54595,0 16.46524,5.94567 20.78015,14.79229c0.69997,1.43509 1.80262,4.52129 1.80262,4.52129z" fill="#000000" stroke="none" stroke-width="0"/><g fill="none" stroke="none" stroke-width="1" font-family="sans-serif" font-weight="normal" font-size="12" text-anchor="start"/><path d="M233.25612,204.48033c0,9.77849 -4.50706,17.7055 -10.06677,17.7055c-5.55972,0 -10.06675,-7.92702 -10.06675,-17.7055c0,-9.77849 4.50704,-17.70552 10.06675,-17.70552c5.55972,0 10.06677,7.92704 10.06677,17.70552z" fill="#000000" stroke="none" stroke-width="0"/></g><g stroke-linecap="butt"><path d="M265.79544,174.81746c12.79049,0 22.14121,13.31844 22.14121,29.74755c0,16.42911 -9.35073,23.25716 -22.14121,23.25716c-12.79049,0 -24.17719,-6.82805 -24.17719,-23.25716c0,-16.42911 11.38671,-29.74755 24.17719,-29.74755z" fill="#ffffff" stroke="#000000" stroke-width="1.5"/><path d="M243.21262,193.04932c0,0 1.10267,-3.08622 1.80262,-4.52129c4.31491,-8.84661 12.2342,-14.79229 20.78015,-14.79229c9.08546,0 16.43531,6.72004 19.93107,16.5016c0.40821,1.14221 1.06357,3.54605 1.06357,3.54605z" fill="#000000" stroke="none" stroke-width="0"/><g fill="none" stroke="none" stroke-width="1" font-family="sans-serif" font-weight="normal" font-size="12" text-anchor="start"/><path d="M256.07205,185.80648c5.55972,0 10.06673,7.92702 10.06673,17.7055c0,9.77849 -4.50704,17.70552 -10.06673,17.70552c-5.55972,0 -10.06677,-7.92704 -10.06677,-17.70552c0,-9.77849 4.50706,-17.7055 10.06677,-17.7055z" fill="#000000" stroke="none" stroke-width="0"/></g><path d="M192.16118,205.47041c0.25631,5.55986 3.59791,17.70651 3.59791,17.70651c0,0 -8.13939,-10.54591 -11.28914,-16.1371c-2.6351,-4.67768 -6.34229,-15.1609 -6.34229,-15.1609l10.58126,8.77211l-6.89433,-17.97736c0,0 6.77007,6.47668 9.52837,7.07581c1.90129,0.41295 5.42931,-3.8269 5.42931,-3.8269c0,0 -4.82451,14.91864 -4.61109,19.54777z" fill="#000000" stroke="#000000" stroke-width="0" stroke-linecap="round"/><path d="M287.36627,204.42645c0.21342,-4.62913 -4.61109,-19.54777 -4.61109,-19.54777c0,0 3.528,4.23989 5.42931,3.82692c2.75829,-0.59913 9.52837,-7.07581 9.52837,-7.07581l-6.89435,17.97736l10.58128,-8.77214c0,0 -3.70717,10.48322 -6.34227,15.1609c-3.14973,5.59118 -11.28914,16.1371 -11.28914,16.1371c0,0 3.34159,-12.14667 3.59791,-17.70651z" fill="#000000" stroke="#000000" stroke-width="0" stroke-linecap="round"/></g><g stroke="none" stroke-width="0" stroke-linecap="butt"><path d="M211.44046,214.38017c0,0 -12.04656,10.01634 -19.1315,-0.54462c-0.5366,-0.79988 -1.53314,9.18063 -1.99938,7.9961c-8.85463,-22.49649 -13.73031,-84.16729 -6.52266,-95.84396c10.17287,-16.48049 40.69951,-20.42129 56.73309,-20.07205c24.69006,0.53781 51.43323,20.50176 59.11479,39.29991c5.89818,14.43392 7.14506,47.25596 -1.15261,65.35211c-6.06725,13.23186 -23.28282,4.78685 -23.28282,4.78685c0,0 12.9195,-0.60049 16.06111,-13.48697c4.96789,-20.37766 1.70096,-46.67829 -5.1563,-46.67829c-7.50135,0 -12.34239,8.76527 -25.19356,13.53339c-13.89183,5.15425 -31.43036,6.34147 -31.43036,6.34147c0,0 11.67733,-8.63482 14.80621,-12.10705c2.10715,-2.33837 2.14554,-6.70482 2.14554,-6.70482c0,0 -16.80509,12.58907 -27.50474,16.49959c-6.68215,2.44222 -17.67605,3.25029 -24.47797,6.18693c-4.55995,1.96871 -6.58687,6.73327 -6.58687,6.73327c0,0 3.5869,16.85088 6.17614,21.25308c3.61286,6.14253 17.40189,7.45508 17.40189,7.45508z" fill-opacity="0.26109" fill="#000000"/><path d="M209.47562,206.02871c0,0 -12.04656,10.01634 -19.1315,-0.54462c-0.5366,-0.79988 -1.53314,9.18063 -1.99938,7.9961c-8.85463,-22.49649 -13.73031,-84.16729 -6.52266,-95.84396c10.17287,-16.48049 40.69951,-20.42129 56.73309,-20.07205c24.69006,0.53781 51.43323,20.50176 59.11479,39.29991c5.89818,14.43392 7.14506,47.25596 -1.15261,65.35211c-6.06725,13.23186 -23.28282,4.78685 -23.28282,4.78685c0,0 12.9195,-0.60049 16.06111,-13.48697c4.96789,-20.37766 1.70096,-46.67829 -5.1563,-46.67829c-7.50135,0 -12.34239,8.76527 -25.19356,13.53339c-13.89183,5.15425 -31.43036,6.34147 -31.43036,6.34147c0,0 11.67733,-8.63482 14.80621,-12.10705c2.10715,-2.33837 2.14554,-6.70482 2.14554,-6.70482c0,0 -16.80509,12.58907 -27.50474,16.49959c-6.68215,2.44222 -17.67605,3.25029 -24.47797,6.18693c-4.55995,1.96871 -6.58687,6.73327 -6.58687,6.73327c0,0 3.5869,16.85088 6.17614,21.25308c3.61286,6.14253 17.40189,7.45508 17.40189,7.45508z" fill="#000000"/></g><path d="M232.77028,226.95657c0,0 1.37153,0.29475 3.09346,0.66319c1.3834,0.29603 2.99297,0.68453 4.29918,0.6662c1.34597,-0.01889 3.08538,-0.48524 4.52517,-0.83172c1.54403,-0.37158 2.74344,-0.62433 2.74344,-0.62433c0,0 -1.97458,1.29312 -3.86009,2.44887c-1.23356,0.75614 -2.15629,1.59837 -3.41093,1.4776c-1.65156,-0.15895 -3.31656,-1.12556 -4.64695,-1.99997c-1.61955,-1.06443 -2.74326,-1.79987 -2.74326,-1.79987z" fill="#000000" stroke="none" stroke-width="0.5" stroke-linecap="round"/><path d="M39.54955,320.08265l-43.54354,-76.57658" fill="none" stroke="none" stroke-width="0" stroke-linecap="round"/></g></g></svg>